<svg id="Layer_3" enable-background="new 0 0 64 64" height="512" viewBox="0 0 64 64" width="512" xmlns="http://www.w3.org/2000/svg"><path d="m32 35h1c.551 0 1-.449 1-1s-.449-1-1-1h-1z"/><path d="m26 39c2.206 0 4-1.794 4-4v-3.003c-.498-.375-.924-.839-1.253-1.37-1.537 1.497-4.135 2.373-5.747 2.373h-1v2c0 2.206 1.794 4 4 4z"/><path d="m18 34c0 .551.449 1 1 1h1v-2h-1c-.551 0-1 .449-1 1z"/><path d="m23 41c-2.757 0-5 2.243-5 5v3h16v-3c0-2.757-2.243-5-5-5z"/><path d="m23 25c-1.654 0-3 1.346-3 3v3h3c1.974 0 5-1.609 5-3 0-.552.448-1 1-1s1 .448 1 1c0 1.304.836 2.416 2 2.829v-2.829c0-1.654-1.346-3-3-3z"/><path d="m31 19v2h-10v-2h4v-2h-12c-.551 0-1 .449-1 1v42c0 .551.449 1 1 1h26c.551 0 1-.449 1-1v-42c0-.551-.449-1-1-1h-12v2zm-5 40h-10v-2h10zm0-4h-10v-2h10zm10 4h-8v-2h8zm-2-31v3.184c1.161.414 2 1.514 2 2.816 0 1.654-1.346 3-3 3h-1.35c-.285.803-.734 1.527-1.31 2.132 3.22.627 5.66 3.467 5.66 6.868v4c0 .552-.448 1-1 1h-18c-.552 0-1-.448-1-1v-4c0-3.401 2.44-6.241 5.66-6.868-.576-.605-1.025-1.329-1.31-2.132h-1.35c-1.654 0-3-1.346-3-3 0-1.302.839-2.402 2-2.816v-3.184c0-2.757 2.243-5 5-5h6c2.757 0 5 2.243 5 5z"/><path d="m43 1h-10c-4.411 0-8 3.589-8 8v8h2v-8c0-3.309 2.691-6 6-6h2c4.962 0 9 4.038 9 9v16c0 2.757 2.243 5 5 5s5-2.243 5-5v-16c0-6.065-4.935-11-11-11zm9 27c0 1.654-1.346 3-3 3s-3-1.346-3-3v-16c0-3.716-1.852-7.008-4.682-9h1.682c4.962 0 9 4.038 9 9z"/></svg>